<?xml version="1.0" encoding="UTF-8" standalone="no"?>
<!DOCTYPE svg PUBLIC "-//W3C//DTD SVG 1.1//EN" "http://www.w3.org/Graphics/SVG/1.1/DTD/svg11.dtd">
<svg version="1.1" xmlns="http://www.w3.org/2000/svg" xmlns:xlink="http://www.w3.org/1999/xlink" preserveAspectRatio="xMidYMid meet" viewBox="0 0 640 640" width="640" height="640"><defs><path d="M346.56 0C348.46 0 350 1.54 350 3.44C350 98.75 350 380 350 475C350 477.76 347.76 480 345 480C344 480 346 480 345 480C342.24 480 340 477.76 340 475C340 380 340 98.62 340 3.28C340 1.47 341.47 0 343.28 0C344.63 0 345.25 0 346.56 0Z" id="c4zUKEFuwe"></path><path d="M352.4 466.6L360.2 300.02L345.07 300L329.93 299.98L337.26 466.57L344.59 633.17L352.4 466.6Z" id="b45TUwE2JN"></path></defs><g><g><g><use xlink:href="#c4zUKEFuwe" opacity="1" fill="#000000" fill-opacity="1"></use></g><g><use xlink:href="#b45TUwE2JN" opacity="1" fill="#000000" fill-opacity="1"></use><g><use xlink:href="#b45TUwE2JN" opacity="1" fill-opacity="0" stroke="#ffffff" stroke-width="1" stroke-opacity="0"></use></g></g></g></g></svg>