<?xml version="1.0" encoding="UTF-8" standalone="no"?>
<!DOCTYPE svg PUBLIC "-//W3C//DTD SVG 1.1//EN" "http://www.w3.org/Graphics/SVG/1.1/DTD/svg11.dtd">
<svg version="1.1" xmlns="http://www.w3.org/2000/svg" xmlns:xlink="http://www.w3.org/1999/xlink" preserveAspectRatio="xMidYMid meet" viewBox="192.00000000000045 91.99999999999989 315.9999999999999 515.9999999999997" width="300" height="500"><defs><path d="M359.66 100C437.17 100 500 162.83 500 240.34C500 312.28 500 387.91 500 459.89C500 537.27 437.27 600 359.89 600C327.91 600 373.21 600 341.51 600C263.35 600 200 536.65 200 458.49C200 386.79 200 312.45 200 240.56C200 162.93 262.93 100 340.56 100C372.45 100 327.72 100 359.66 100Z" id="bN48N1Bgz"></path><path d="M400 250C400 277.6 377.6 300 350 300C322.4 300 300 277.6 300 250C300 222.4 322.4 200 350 200C377.6 200 400 222.4 400 250Z" id="d1Lc5ofYjp"></path></defs><g><g><g><filter id="shadow9987515" x="191" y="91" width="319" height="519" filterUnits="userSpaceOnUse" primitiveUnits="userSpaceOnUse"><feFlood></feFlood><feComposite in2="SourceAlpha" operator="in"></feComposite><feGaussianBlur stdDeviation="1"></feGaussianBlur><feOffset dx="1" dy="1" result="afterOffset"></feOffset><feFlood flood-color="#ffffff" flood-opacity="0.5"></feFlood><feComposite in2="afterOffset" operator="in"></feComposite><feMorphology operator="dilate" radius="1"></feMorphology><feComposite in2="SourceAlpha" operator="out"></feComposite></filter><path d="M359.66 100C437.17 100 500 162.83 500 240.34C500 312.28 500 387.91 500 459.89C500 537.27 437.27 600 359.89 600C327.91 600 373.21 600 341.51 600C263.35 600 200 536.65 200 458.49C200 386.79 200 312.45 200 240.56C200 162.93 262.93 100 340.56 100C372.45 100 327.72 100 359.66 100Z" id="d2CGtzRDF5" fill="white" fill-opacity="1" filter="url(#shadow9987515)"></path></g><use xlink:href="#bN48N1Bgz" opacity="1" fill="#ffffff" fill-opacity="0"></use><g><use xlink:href="#bN48N1Bgz" opacity="1" fill-opacity="0" stroke="#000000" stroke-width="16" stroke-opacity="1"></use></g></g><g><use xlink:href="#d1Lc5ofYjp" opacity="1" fill="#000000" fill-opacity="1"></use><g><use xlink:href="#d1Lc5ofYjp" opacity="1" fill-opacity="0" stroke="#000000" stroke-width="1" stroke-opacity="0"></use></g></g></g></svg>