<?xml version="1.0" encoding="UTF-8" standalone="no"?>
<!DOCTYPE svg PUBLIC "-//W3C//DTD SVG 1.1//EN" "http://www.w3.org/Graphics/SVG/1.1/DTD/svg11.dtd">
<svg version="1.1" xmlns="http://www.w3.org/2000/svg" xmlns:xlink="http://www.w3.org/1999/xlink" preserveAspectRatio="xMidYMid meet" viewBox="293.039232118691 192 112.98365541330685 216.162642706918" width="96.98" height="200.16"><defs><path d="M354.24 200C357.42 200 360 202.58 360 205.76C360 244.61 360 352 360 390C360 395.52 355.52 400 350 400C348 400 352 400 350 400C344.48 400 340 395.52 340 390C340 352 340 244.61 340 205.76C340 202.58 342.58 200 345.76 200C348.61 200 351.39 200 354.24 200Z" id="jylYqgpjw"></path><path d="M395.96 343.08C398.44 345.2 398.72 348.93 396.6 351.41C387.99 361.46 364.8 388.51 355.89 398.9C354.59 400.42 352.32 400.59 350.81 399.3C348.32 397.16 343.59 393.1 341.1 390.97C339.58 389.67 339.41 387.4 340.7 385.89C349.62 375.49 373.24 347.93 381.96 337.76C383.78 335.63 386.99 335.39 389.12 337.21C391.38 339.15 393.82 341.24 395.96 343.08Z" id="bf5iavgDG"></path><path d="M358.31 390.81C359.82 389.51 359.99 387.24 358.7 385.73C349.79 375.33 326.6 348.28 317.99 338.23C315.86 335.75 312.13 335.47 309.66 337.59C307.52 339.42 305.08 341.51 302.81 343.46C300.68 345.28 300.44 348.49 302.26 350.62C310.98 360.79 334.6 388.35 343.51 398.74C344.81 400.25 347.08 400.43 348.59 399.13C351.08 397 355.82 392.94 358.31 390.81Z" id="a5dTgl5DbC"></path></defs><g><g><use xlink:href="#jylYqgpjw" opacity="1" fill="#ffffff" fill-opacity="1"></use></g><g><use xlink:href="#bf5iavgDG" opacity="1" fill="#ffffff" fill-opacity="1"></use></g><g><use xlink:href="#a5dTgl5DbC" opacity="1" fill="#ffffff" fill-opacity="1"></use></g></g></svg>