<?xml version="1.0" encoding="UTF-8" standalone="no"?>
<!DOCTYPE svg PUBLIC "-//W3C//DTD SVG 1.1//EN" "http://www.w3.org/Graphics/SVG/1.1/DTD/svg11.dtd">
<svg version="1.1" xmlns="http://www.w3.org/2000/svg" xmlns:xlink="http://www.w3.org/1999/xlink" preserveAspectRatio="xMidYMid meet" viewBox="292 192.00000000000006 216 315.9999999999997" width="200" height="300"><defs><path d="M399.54 200C455.02 200 500 244.98 500 300.46C500 340.37 500 360.2 500 400.25C500 455.34 455.34 500 400.25 500C380.2 500 419.8 500 399.75 500C344.66 500 300 455.34 300 400.25C300 360.2 300 340.37 300 300.46C300 244.98 344.98 200 400.46 200C420.37 200 379.63 200 399.54 200Z" id="cv38Uel7n"></path><path d="M420 300C420 311.04 411.04 320 400 320C388.96 320 380 311.04 380 300C380 288.96 388.96 280 400 280C411.04 280 420 288.96 420 300Z" id="btfnQ7pRB"></path></defs><g><g><g><filter id="shadow7205495" x="291" y="191" width="219" height="319" filterUnits="userSpaceOnUse" primitiveUnits="userSpaceOnUse"><feFlood></feFlood><feComposite in2="SourceAlpha" operator="in"></feComposite><feGaussianBlur stdDeviation="1"></feGaussianBlur><feOffset dx="1" dy="1" result="afterOffset"></feOffset><feFlood flood-color="#ffffff" flood-opacity="0.5"></feFlood><feComposite in2="afterOffset" operator="in"></feComposite><feMorphology operator="dilate" radius="1"></feMorphology><feComposite in2="SourceAlpha" operator="out"></feComposite></filter><path d="M399.54 200C455.02 200 500 244.98 500 300.46C500 340.37 500 360.2 500 400.25C500 455.34 455.34 500 400.25 500C380.2 500 419.8 500 399.75 500C344.66 500 300 455.34 300 400.25C300 360.2 300 340.37 300 300.46C300 244.98 344.98 200 400.46 200C420.37 200 379.63 200 399.54 200Z" id="d1gPoHXa9m" fill="white" fill-opacity="1" filter="url(#shadow7205495)"></path></g><use xlink:href="#cv38Uel7n" opacity="1" fill="#ffffff" fill-opacity="0"></use><g><use xlink:href="#cv38Uel7n" opacity="1" fill-opacity="0" stroke="#ffffff" stroke-width="16" stroke-opacity="1"></use></g></g><g><use xlink:href="#btfnQ7pRB" opacity="1" fill="#ffffff" fill-opacity="1"></use></g></g></svg>